<?xml version="1.0" encoding="utf-8"?>
<!-- Generator: Adobe Illustrator 16.0.0, SVG Export Plug-In . SVG Version: 6.00 Build 0)  -->
<!DOCTYPE svg PUBLIC "-//W3C//DTD SVG 1.1//EN" "http://www.w3.org/Graphics/SVG/1.1/DTD/svg11.dtd">
<svg version="1.1" id="Ebene_1" xmlns="http://www.w3.org/2000/svg" xmlns:xlink="http://www.w3.org/1999/xlink" x="0px" y="0px"
	 width="1417.32px" height="1417.32px" viewBox="0 0 1417.32 1417.32" enable-background="new 0 0 1417.32 1417.32"
	 xml:space="preserve">
<line fill="none" stroke="#000000" x1="712.898" y1="708.867" x2="121.041" y2="341.878"/>
<line fill="none" stroke="#000000" x1="712.992" y1="708.339" x2="102.74" y2="372.828"/>
<line fill="none" stroke="#000000" x1="713.035" y1="707.802" x2="86.062" y2="404.689"/>
<line fill="none" stroke="#000000" x1="713.028" y1="707.26" x2="71.049" y2="437.376"/>
<line fill="none" stroke="#000000" x1="712.974" y1="706.72" x2="57.75" y2="470.804"/>
<line fill="none" stroke="#000000" x1="712.874" y1="706.188" x2="46.203" y2="504.887"/>
<line fill="none" stroke="#000000" x1="712.732" y1="705.666" x2="36.438" y2="539.532"/>
<line fill="none" stroke="#000000" x1="712.551" y1="705.161" x2="28.489" y2="574.649"/>
<line fill="none" stroke="#000000" x1="712.333" y1="704.679" x2="22.379" y2="610.146"/>
<line fill="none" stroke="#000000" x1="712.085" y1="704.218" x2="18.128" y2="645.925"/>
<line fill="none" stroke="#000000" x1="711.811" y1="703.782" x2="15.754" y2="681.889"/>
<line fill="none" stroke="#000000" x1="711.511" y1="703.375" x2="15.262" y2="717.941"/>
<line fill="none" stroke="#000000" x1="711.193" y1="703.001" x2="16.663" y2="753.982"/>
<line fill="none" stroke="#000000" x1="710.861" y1="702.656" x2="19.948" y2="789.916"/>
<line fill="none" stroke="#000000" x1="710.516" y1="702.34" x2="25.119" y2="825.644"/>
<line fill="none" stroke="#000000" x1="710.164" y1="702.059" x2="32.159" y2="861.062"/>
<line fill="none" stroke="#000000" x1="709.809" y1="701.809" x2="41.053" y2="896.08"/>
<line fill="none" stroke="#000000" x1="709.449" y1="701.588" x2="51.78" y2="930.593"/>
<line fill="none" stroke="#000000" x1="709.093" y1="701.399" x2="64.309" y2="964.51"/>
<line fill="none" stroke="#000000" x1="708.739" y1="701.241" x2="78.609" y2="997.735"/>
<line fill="none" stroke="#000000" x1="708.393" y1="701.111" x2="94.643" y2="1030.179"/>
<line fill="none" stroke="#000000" x1="708.053" y1="701.009" x2="112.366" y2="1061.748"/>
<line fill="none" stroke="#000000" x1="707.721" y1="700.938" x2="131.73" y2="1092.354"/>
<line fill="none" stroke="#000000" x1="707.402" y1="700.89" x2="152.684" y2="1121.918"/>
<line fill="none" stroke="#000000" x1="707.092" y1="700.869" x2="175.169" y2="1150.353"/>
<line fill="none" stroke="#000000" x1="706.794" y1="700.875" x2="199.126" y2="1177.58"/>
<line fill="none" stroke="#000000" x1="706.51" y1="700.904" x2="224.489" y2="1203.526"/>
<line fill="none" stroke="#000000" x1="706.243" y1="700.96" x2="251.186" y2="1228.118"/>
<line fill="none" stroke="#000000" x1="705.99" y1="701.042" x2="279.146" y2="1251.292"/>
<line fill="none" stroke="#000000" x1="705.753" y1="701.147" x2="308.291" y2="1272.984"/>
<line fill="none" stroke="#000000" x1="705.715" y1="701.388" x2="338.727" y2="1293.244"/>
<line fill="none" stroke="#000000" x1="705.449" y1="701.943" x2="369.94" y2="1312.194"/>
<line fill="none" stroke="#000000" x1="705.115" y1="702.458" x2="402.002" y2="1329.432"/>
<line fill="none" stroke="#000000" x1="704.833" y1="702.999" x2="434.946" y2="1344.976"/>
<line fill="none" stroke="#000000" x1="704.604" y1="703.556" x2="468.689" y2="1358.778"/>
<line fill="none" stroke="#000000" x1="704.436" y1="704.125" x2="503.135" y2="1370.797"/>
<line fill="none" stroke="#000000" x1="704.327" y1="704.693" x2="538.193" y2="1380.988"/>
<line fill="none" stroke="#000000" x1="704.277" y1="705.257" x2="573.763" y2="1389.319"/>
<line fill="none" stroke="#000000" x1="704.283" y1="705.807" x2="609.75" y2="1395.762"/>
<line fill="none" stroke="#000000" x1="704.344" y1="706.336" x2="646.052" y2="1400.29"/>
<g>
	<g>
		<defs>
			<rect id="SVGID_1_" x="11.28" y="13.134" width="1394.761" height="1391.053"/>
		</defs>
		<clipPath id="SVGID_2_">
			<use xlink:href="#SVGID_1_"  overflow="visible"/>
		</clipPath>
		<line clip-path="url(#SVGID_2_)" fill="none" stroke="#000000" x1="704.461" y1="706.834" x2="682.565" y2="1402.891"/>
	</g>
	<g>
		<defs>
			<rect id="SVGID_3_" x="11.28" y="13.134" width="1394.761" height="1391.053"/>
		</defs>
		<clipPath id="SVGID_4_">
			<use xlink:href="#SVGID_3_"  overflow="visible"/>
		</clipPath>
		<line clip-path="url(#SVGID_4_)" fill="none" stroke="#000000" x1="704.625" y1="707.297" x2="719.189" y2="1403.545"/>
	</g>
	<g>
		<defs>
			<rect id="SVGID_5_" x="11.28" y="13.134" width="1394.761" height="1391.053"/>
		</defs>
		<clipPath id="SVGID_6_">
			<use xlink:href="#SVGID_5_"  overflow="visible"/>
		</clipPath>
		<line clip-path="url(#SVGID_6_)" fill="none" stroke="#000000" x1="704.833" y1="707.718" x2="755.813" y2="1402.25"/>
	</g>
</g>
<line fill="none" stroke="#000000" x1="705.079" y1="708.094" x2="792.342" y2="1399.006"/>
<line fill="none" stroke="#000000" x1="705.356" y1="708.418" x2="828.659" y2="1393.816"/>
<line fill="none" stroke="#000000" x1="705.661" y1="708.688" x2="864.666" y2="1386.693"/>
<line fill="none" stroke="#000000" x1="705.988" y1="708.904" x2="900.259" y2="1377.658"/>
<line fill="none" stroke="#000000" x1="706.326" y1="709.06" x2="935.33" y2="1366.729"/>
<line fill="none" stroke="#000000" x1="706.67" y1="709.158" x2="969.779" y2="1353.94"/>
<line fill="none" stroke="#000000" x1="707.015" y1="709.196" x2="1003.51" y2="1339.327"/>
<line fill="none" stroke="#000000" x1="707.354" y1="709.18" x2="1036.421" y2="1322.93"/>
<line fill="none" stroke="#000000" x1="707.68" y1="709.11" x2="1068.418" y2="1304.797"/>
<line fill="none" stroke="#000000" x1="707.99" y1="708.986" x2="1099.408" y2="1284.977"/>
<line fill="none" stroke="#000000" x1="708.275" y1="708.817" x2="1129.303" y2="1263.532"/>
<line fill="none" stroke="#000000" x1="708.534" y1="708.604" x2="1158.015" y2="1240.523"/>
<line fill="none" stroke="#000000" x1="708.763" y1="708.351" x2="1185.467" y2="1216.017"/>
<line fill="none" stroke="#000000" x1="708.959" y1="708.063" x2="1211.579" y2="1190.085"/>
<line fill="none" stroke="#000000" x1="709.119" y1="707.748" x2="1236.277" y2="1162.806"/>
<line fill="none" stroke="#000000" x1="709.24" y1="707.407" x2="1259.493" y2="1134.252"/>
<line fill="none" stroke="#000000" x1="709.325" y1="707.052" x2="1281.164" y2="1104.513"/>
<line fill="none" stroke="#000000" x1="709.374" y1="706.684" x2="1301.23" y2="1073.672"/>
<line fill="none" stroke="#000000" x1="709.537" y1="706.581" x2="1319.787" y2="1042.091"/>
<line fill="none" stroke="#000000" x1="709.756" y1="706.317" x2="1336.728" y2="1009.431"/>
<line fill="none" stroke="#000000" x1="709.937" y1="706.038" x2="1351.914" y2="975.921"/>
<line fill="none" stroke="#000000" x1="710.08" y1="705.742" x2="1365.305" y2="941.657"/>
<line fill="none" stroke="#000000" x1="710.182" y1="705.433" x2="1376.854" y2="906.732"/>
<line fill="none" stroke="#000000" x1="710.236" y1="705.117" x2="1386.53" y2="871.251"/>
<line fill="none" stroke="#000000" x1="710.244" y1="704.797" x2="1394.306" y2="835.31"/>
<line fill="none" stroke="#000000" x1="710.202" y1="704.482" x2="1400.158" y2="799.015"/>
<line fill="none" stroke="#000000" x1="710.11" y1="704.174" x2="1404.065" y2="762.468"/>
<g>
	<g>
		<defs>
			<rect id="SVGID_7_" x="11.28" y="13.134" width="1394.761" height="1391.053"/>
		</defs>
		<clipPath id="SVGID_8_">
			<use xlink:href="#SVGID_7_"  overflow="visible"/>
		</clipPath>
		<line clip-path="url(#SVGID_8_)" fill="none" stroke="#000000" x1="709.966" y1="703.879" x2="1406.021" y2="725.774"/>
	</g>
	<g>
		<defs>
			<rect id="SVGID_9_" x="11.28" y="13.134" width="1394.761" height="1391.053"/>
		</defs>
		<clipPath id="SVGID_10_">
			<use xlink:href="#SVGID_9_"  overflow="visible"/>
		</clipPath>
		<line clip-path="url(#SVGID_10_)" fill="none" stroke="#000000" x1="709.771" y1="703.604" x2="1406.02" y2="689.041"/>
	</g>
</g>
<line fill="none" stroke="#000000" x1="709.525" y1="703.355" x2="1404.059" y2="652.371"/>
<line fill="none" stroke="#000000" x1="709.234" y1="703.137" x2="1400.146" y2="615.875"/>
<line fill="none" stroke="#000000" x1="708.9" y1="702.957" x2="1394.297" y2="579.653"/>
<line fill="none" stroke="#000000" x1="708.522" y1="702.818" x2="1386.528" y2="543.813"/>
<line fill="none" stroke="#000000" x1="708.112" y1="702.725" x2="1376.866" y2="508.453"/>
<line fill="none" stroke="#000000" x1="707.668" y1="702.683" x2="1365.34" y2="473.678"/>
<line fill="none" stroke="#000000" x1="707.204" y1="702.696" x2="1351.988" y2="439.585"/>
<line fill="none" stroke="#000000" x1="706.72" y1="702.767" x2="1336.853" y2="406.271"/>
<line fill="none" stroke="#000000" x1="706.227" y1="702.893" x2="1319.977" y2="373.827"/>
<line fill="none" stroke="#000000" x1="705.73" y1="703.083" x2="1301.417" y2="342.345"/>
<line fill="none" stroke="#000000" x1="705.239" y1="703.33" x2="1281.23" y2="311.911"/>
<line fill="none" stroke="#000000" x1="704.758" y1="703.635" x2="1259.475" y2="282.608"/>
<line fill="none" stroke="#000000" x1="704.299" y1="703.997" x2="1236.221" y2="254.516"/>
<line fill="none" stroke="#000000" x1="703.868" y1="704.412" x2="1211.535" y2="227.707"/>
<line fill="none" stroke="#000000" x1="703.47" y1="704.875" x2="1185.493" y2="202.253"/>
<line fill="none" stroke="#000000" x1="703.113" y1="705.382" x2="1158.171" y2="178.222"/>
<line fill="none" stroke="#000000" x1="702.802" y1="705.926" x2="1129.646" y2="155.673"/>
<line fill="none" stroke="#000000" x1="702.543" y1="706.5" x2="1100.006" y2="134.663"/>
<line fill="none" stroke="#000000" x1="702.161" y1="706.987" x2="1069.148" y2="115.131"/>
<line fill="none" stroke="#000000" x1="702.082" y1="707.199" x2="1037.593" y2="96.948"/>
<line fill="none" stroke="#000000" x1="702.157" y1="707.486" x2="1005.271" y2="80.512"/>
<line fill="none" stroke="#000000" x1="702.265" y1="707.767" x2="972.148" y2="65.788"/>
<line fill="none" stroke="#000000" x1="702.403" y1="708.045" x2="938.316" y2="52.822"/>
<line fill="none" stroke="#000000" x1="702.569" y1="708.317" x2="903.869" y2="41.646"/>
<line fill="none" stroke="#000000" x1="702.767" y1="708.585" x2="868.899" y2="32.291"/>
<line fill="none" stroke="#000000" x1="702.99" y1="708.845" x2="833.501" y2="24.783"/>
<line fill="none" stroke="#000000" x1="703.242" y1="709.094" x2="797.775" y2="19.14"/>
<line fill="none" stroke="#000000" x1="703.522" y1="709.335" x2="761.815" y2="15.38"/>
<g>
	<g>
		<defs>
			<rect id="SVGID_11_" x="11.28" y="13.134" width="1394.761" height="1391.053"/>
		</defs>
		<clipPath id="SVGID_12_">
			<use xlink:href="#SVGID_11_"  overflow="visible"/>
		</clipPath>
		<line clip-path="url(#SVGID_12_)" fill="none" stroke="#000000" x1="703.826" y1="709.566" x2="725.72" y2="13.51"/>
	</g>
	<g>
		<defs>
			<rect id="SVGID_13_" x="11.28" y="13.134" width="1394.761" height="1391.053"/>
		</defs>
		<clipPath id="SVGID_14_">
			<use xlink:href="#SVGID_13_"  overflow="visible"/>
		</clipPath>
		<line clip-path="url(#SVGID_14_)" fill="none" stroke="#000000" x1="704.155" y1="709.782" x2="689.592" y2="13.536"/>
	</g>
</g>
<line fill="none" stroke="#000000" x1="704.511" y1="709.987" x2="653.527" y2="15.456"/>
<line fill="none" stroke="#000000" x1="704.888" y1="710.177" x2="617.625" y2="19.263"/>
<line fill="none" stroke="#000000" x1="705.29" y1="710.346" x2="581.988" y2="24.95"/>
<line fill="none" stroke="#000000" x1="705.712" y1="710.497" x2="546.708" y2="32.492"/>
<line fill="none" stroke="#000000" x1="706.155" y1="710.626" x2="511.884" y2="41.872"/>
<line fill="none" stroke="#000000" x1="706.616" y1="710.73" x2="477.611" y2="53.061"/>
<line fill="none" stroke="#000000" x1="707.094" y1="710.809" x2="443.983" y2="66.025"/>
<line fill="none" stroke="#000000" x1="707.585" y1="710.858" x2="411.091" y2="80.727"/>
<line fill="none" stroke="#000000" x1="708.088" y1="710.874" x2="379.021" y2="97.126"/>
<line fill="none" stroke="#000000" x1="708.599" y1="710.861" x2="347.859" y2="115.173"/>
<line fill="none" stroke="#000000" x1="709.113" y1="710.809" x2="317.694" y2="134.817"/>
<line fill="none" stroke="#000000" x1="709.626" y1="710.719" x2="288.6" y2="156.003"/>
<line fill="none" stroke="#000000" x1="710.136" y1="710.594" x2="260.655" y2="178.671"/>
<line fill="none" stroke="#000000" x1="710.636" y1="710.426" x2="233.932" y2="202.758"/>
<line fill="none" stroke="#000000" x1="711.123" y1="710.219" x2="208.501" y2="228.196"/>
<line fill="none" stroke="#000000" x1="711.589" y1="709.973" x2="184.431" y2="254.915"/>
<line fill="none" stroke="#000000" x1="712.028" y1="709.686" x2="161.777" y2="282.842"/>
<line fill="none" stroke="#000000" x1="712.438" y1="709.364" x2="140.6" y2="311.902"/>
<line fill="none" stroke="#000000" x1="708.162" y1="710.015" x2="331.009" y2="124.583"/>
<line fill="none" stroke="#000000" x1="708.472" y1="709.577" x2="301.198" y2="144.687"/>
<line fill="none" stroke="#000000" x1="708.743" y1="709.112" x2="272.462" y2="166.31"/>
<line fill="none" stroke="#000000" x1="708.97" y1="708.618" x2="244.878" y2="189.395"/>
<line fill="none" stroke="#000000" x1="709.153" y1="708.108" x2="218.523" y2="213.885"/>
<line fill="none" stroke="#000000" x1="709.289" y1="707.583" x2="193.468" y2="239.714"/>
<line fill="none" stroke="#000000" x1="709.385" y1="707.052" x2="169.783" y2="266.82"/>
<line fill="none" stroke="#000000" x1="709.437" y1="706.518" x2="147.535" y2="295.131"/>
<line fill="none" stroke="#000000" x1="709.449" y1="705.988" x2="126.787" y2="324.572"/>
<line fill="none" stroke="#000000" x1="709.423" y1="705.465" x2="107.599" y2="355.066"/>
<line fill="none" stroke="#000000" x1="709.36" y1="704.955" x2="90.021" y2="386.533"/>
<line fill="none" stroke="#000000" x1="709.266" y1="704.46" x2="74.11" y2="418.888"/>
<line fill="none" stroke="#000000" x1="709.139" y1="703.983" x2="59.908" y2="452.044"/>
<line fill="none" stroke="#000000" x1="708.986" y1="703.528" x2="47.459" y2="485.913"/>
<line fill="none" stroke="#000000" x1="708.812" y1="703.097" x2="36.803" y2="520.402"/>
<line fill="none" stroke="#000000" x1="708.614" y1="702.69" x2="27.963" y2="555.417"/>
<line fill="none" stroke="#000000" x1="708.4" y1="702.312" x2="20.976" y2="590.862"/>
<line fill="none" stroke="#000000" x1="708.169" y1="701.96" x2="15.855" y2="626.639"/>
<g>
	<g>
		<defs>
			<rect id="SVGID_15_" x="11.28" y="13.134" width="1394.761" height="1391.053"/>
		</defs>
		<clipPath id="SVGID_16_">
			<use xlink:href="#SVGID_15_"  overflow="visible"/>
		</clipPath>
		<line clip-path="url(#SVGID_16_)" fill="none" stroke="#000000" x1="707.929" y1="701.637" x2="12.621" y2="662.65"/>
	</g>
	<g>
		<defs>
			<rect id="SVGID_17_" x="11.28" y="13.134" width="1394.761" height="1391.053"/>
		</defs>
		<clipPath id="SVGID_18_">
			<use xlink:href="#SVGID_17_"  overflow="visible"/>
		</clipPath>
		<line clip-path="url(#SVGID_18_)" fill="none" stroke="#000000" x1="707.677" y1="701.341" x2="11.282" y2="698.8"/>
	</g>
	<g>
		<defs>
			<rect id="SVGID_19_" x="11.28" y="13.134" width="1394.761" height="1391.053"/>
		</defs>
		<clipPath id="SVGID_20_">
			<use xlink:href="#SVGID_19_"  overflow="visible"/>
		</clipPath>
		<line clip-path="url(#SVGID_20_)" fill="none" stroke="#000000" x1="707.419" y1="701.075" x2="11.845" y2="734.982"/>
	</g>
</g>
<line fill="none" stroke="#000000" x1="707.156" y1="700.838" x2="14.31" y2="771.104"/>
<line fill="none" stroke="#000000" x1="706.889" y1="700.63" x2="18.668" y2="807.059"/>
<line fill="none" stroke="#000000" x1="706.618" y1="700.45" x2="24.912" y2="842.752"/>
<line fill="none" stroke="#000000" x1="706.349" y1="700.298" x2="33.024" y2="878.084"/>
<line fill="none" stroke="#000000" x1="706.078" y1="700.176" x2="42.98" y2="912.957"/>
<line fill="none" stroke="#000000" x1="705.809" y1="700.083" x2="54.757" y2="947.275"/>
<line fill="none" stroke="#000000" x1="705.542" y1="700.017" x2="68.32" y2="980.944"/>
<line fill="none" stroke="#000000" x1="705.28" y1="699.981" x2="83.633" y2="1013.873"/>
<line fill="none" stroke="#000000" x1="705.022" y1="699.976" x2="100.653" y2="1045.972"/>
<line fill="none" stroke="#000000" x1="704.884" y1="700.176" x2="119.452" y2="1077.328"/>
<line fill="none" stroke="#000000" x1="704.405" y1="700.563" x2="139.515" y2="1107.838"/>
<line fill="none" stroke="#000000" x1="703.881" y1="700.886" x2="161.08" y2="1137.164"/>
<line fill="none" stroke="#000000" x1="703.394" y1="701.251" x2="184.169" y2="1165.341"/>
<line fill="none" stroke="#000000" x1="702.95" y1="701.658" x2="208.727" y2="1192.288"/>
<line fill="none" stroke="#000000" x1="702.554" y1="702.099" x2="234.685" y2="1217.923"/>
<line fill="none" stroke="#000000" x1="702.21" y1="702.567" x2="261.979" y2="1242.169"/>
<line fill="none" stroke="#000000" x1="701.922" y1="703.055" x2="290.534" y2="1264.958"/>
<line fill="none" stroke="#000000" x1="701.694" y1="703.554" x2="320.276" y2="1286.216"/>
<line fill="none" stroke="#000000" x1="701.522" y1="704.058" x2="351.125" y2="1305.882"/>
<line fill="none" stroke="#000000" x1="701.413" y1="704.556" x2="382.991" y2="1323.896"/>
<line fill="none" stroke="#000000" x1="701.362" y1="705.045" x2="415.789" y2="1340.201"/>
<line fill="none" stroke="#000000" x1="701.368" y1="705.517" x2="449.429" y2="1354.747"/>
<line fill="none" stroke="#000000" x1="701.429" y1="705.96" x2="483.815" y2="1367.488"/>
<line fill="none" stroke="#000000" x1="701.542" y1="706.373" x2="518.846" y2="1378.381"/>
<line fill="none" stroke="#000000" x1="701.703" y1="706.749" x2="554.428" y2="1387.398"/>
<line fill="none" stroke="#000000" x1="701.904" y1="707.083" x2="590.453" y2="1394.505"/>
<line fill="none" stroke="#000000" x1="702.143" y1="707.368" x2="626.823" y2="1399.683"/>
<g>
	<g>
		<defs>
			<rect id="SVGID_21_" x="11.28" y="13.134" width="1394.761" height="1391.053"/>
		</defs>
		<clipPath id="SVGID_22_">
			<use xlink:href="#SVGID_21_"  overflow="visible"/>
		</clipPath>
		<line clip-path="url(#SVGID_22_)" fill="none" stroke="#000000" x1="702.412" y1="707.605" x2="663.428" y2="1402.912"/>
	</g>
	<g>
		<defs>
			<rect id="SVGID_23_" x="11.28" y="13.134" width="1394.761" height="1391.053"/>
		</defs>
		<clipPath id="SVGID_24_">
			<use xlink:href="#SVGID_23_"  overflow="visible"/>
		</clipPath>
		<line clip-path="url(#SVGID_24_)" fill="none" stroke="#000000" x1="702.708" y1="707.79" x2="700.165" y2="1404.184"/>
	</g>
	<g>
		<defs>
			<rect id="SVGID_25_" x="11.28" y="13.134" width="1394.761" height="1391.053"/>
		</defs>
		<clipPath id="SVGID_26_">
			<use xlink:href="#SVGID_25_"  overflow="visible"/>
		</clipPath>
		<line clip-path="url(#SVGID_26_)" fill="none" stroke="#000000" x1="703.02" y1="707.918" x2="736.928" y2="1403.493"/>
	</g>
</g>
<line fill="none" stroke="#000000" x1="703.345" y1="707.995" x2="773.61" y2="1400.842"/>
<line fill="none" stroke="#000000" x1="703.677" y1="708.015" x2="810.105" y2="1396.234"/>
<line fill="none" stroke="#000000" x1="704.009" y1="707.984" x2="846.312" y2="1389.69"/>
<line fill="none" stroke="#000000" x1="704.333" y1="707.903" x2="882.118" y2="1381.227"/>
<line fill="none" stroke="#000000" x1="704.648" y1="707.771" x2="917.429" y2="1370.871"/>
<line fill="none" stroke="#000000" x1="704.947" y1="707.598" x2="952.141" y2="1358.648"/>
<line fill="none" stroke="#000000" x1="705.229" y1="707.379" x2="986.156" y2="1344.603"/>
<line fill="none" stroke="#000000" x1="705.485" y1="707.126" x2="1019.375" y2="1328.774"/>
<line fill="none" stroke="#000000" x1="705.714" y1="706.843" x2="1051.71" y2="1311.209"/>
<line fill="none" stroke="#000000" x1="705.916" y1="706.53" x2="1083.068" y2="1291.96"/>
<line fill="none" stroke="#000000" x1="706.108" y1="706.504" x2="1113.383" y2="1271.396"/>
<line fill="none" stroke="#000000" x1="706.416" y1="706.362" x2="1142.697" y2="1249.162"/>
<line fill="none" stroke="#000000" x1="706.702" y1="706.188" x2="1170.794" y2="1225.41"/>
<line fill="none" stroke="#000000" x1="706.958" y1="705.981" x2="1197.586" y2="1200.203"/>
<line fill="none" stroke="#000000" x1="707.181" y1="705.745" x2="1223.004" y2="1173.613"/>
<line fill="none" stroke="#000000" x1="707.367" y1="705.485" x2="1246.97" y2="1145.716"/>
<line fill="none" stroke="#000000" x1="707.51" y1="705.2" x2="1269.413" y2="1116.588"/>
<line fill="none" stroke="#000000" x1="707.61" y1="704.896" x2="1290.271" y2="1086.312"/>
<line fill="none" stroke="#000000" x1="707.657" y1="704.579" x2="1309.48" y2="1054.977"/>
<line fill="none" stroke="#000000" x1="707.653" y1="704.25" x2="1326.992" y2="1022.672"/>
<line fill="none" stroke="#000000" x1="707.595" y1="703.919" x2="1342.749" y2="989.491"/>
<line fill="none" stroke="#000000" x1="707.481" y1="703.588" x2="1356.713" y2="955.525"/>
<line fill="none" stroke="#000000" x1="707.311" y1="703.267" x2="1368.837" y2="920.882"/>
<line fill="none" stroke="#000000" x1="707.086" y1="702.959" x2="1379.095" y2="885.654"/>
<line fill="none" stroke="#000000" x1="706.805" y1="702.671" x2="1387.455" y2="849.947"/>
<line fill="none" stroke="#000000" x1="706.474" y1="702.413" x2="1393.897" y2="813.861"/>
<line fill="none" stroke="#000000" x1="706.092" y1="702.185" x2="1398.406" y2="777.506"/>
<line fill="none" stroke="#000000" x1="705.666" y1="701.998" x2="1400.974" y2="740.981"/>
<line fill="none" stroke="#000000" x1="705.2" y1="701.854" x2="1401.596" y2="704.393"/>
<line fill="none" stroke="#000000" x1="704.699" y1="701.758" x2="1400.273" y2="667.848"/>
<line fill="none" stroke="#000000" x1="704.171" y1="701.713" x2="1397.018" y2="631.448"/>
<line fill="none" stroke="#000000" x1="703.62" y1="701.726" x2="1391.839" y2="595.296"/>
<line fill="none" stroke="#000000" x1="703.055" y1="701.796" x2="1384.762" y2="559.493"/>
<line fill="none" stroke="#000000" x1="702.484" y1="701.925" x2="1375.81" y2="524.14"/>
<line fill="none" stroke="#000000" x1="701.916" y1="702.115" x2="1365.014" y2="489.334"/>
<line fill="none" stroke="#000000" x1="701.357" y1="702.363" x2="1352.411" y2="455.17"/>
<line fill="none" stroke="#000000" x1="700.818" y1="702.668" x2="1338.041" y2="421.738"/>
<line fill="none" stroke="#000000" x1="700.303" y1="703.024" x2="1321.951" y2="389.133"/>
<line fill="none" stroke="#000000" x1="699.824" y1="703.432" x2="1304.191" y2="357.436"/>
<line fill="none" stroke="#000000" x1="699.269" y1="703.708" x2="1284.7" y2="326.556"/>
<line fill="none" stroke="#000000" x1="699.106" y1="703.867" x2="1263.998" y2="296.592"/>
<line fill="none" stroke="#000000" x1="699.052" y1="704.155" x2="1241.854" y2="267.877"/>
<line fill="none" stroke="#000000" x1="699.029" y1="704.458" x2="1218.253" y2="240.366"/>
<line fill="none" stroke="#000000" x1="699.035" y1="704.769" x2="1193.257" y2="214.14"/>
<line fill="none" stroke="#000000" x1="699.068" y1="705.086" x2="1166.937" y2="189.265"/>
<line fill="none" stroke="#000000" x1="699.132" y1="705.411" x2="1139.362" y2="165.81"/>
<line fill="none" stroke="#000000" x1="699.224" y1="705.743" x2="1110.61" y2="143.84"/>
<line fill="none" stroke="#000000" x1="699.342" y1="706.077" x2="1080.76" y2="123.414"/>
<line fill="none" stroke="#000000" x1="699.491" y1="706.414" x2="1049.891" y2="104.588"/>
<line fill="none" stroke="#000000" x1="699.667" y1="706.751" x2="1018.089" y2="87.414"/>
<line fill="none" stroke="#000000" x1="699.873" y1="707.092" x2="985.445" y2="71.935"/>
<line fill="none" stroke="#000000" x1="700.104" y1="707.427" x2="952.042" y2="58.195"/>
<line fill="none" stroke="#000000" x1="700.364" y1="707.76" x2="917.981" y2="46.232"/>
<line fill="none" stroke="#000000" x1="700.655" y1="708.084" x2="883.35" y2="36.077"/>
<line fill="none" stroke="#000000" x1="700.972" y1="708.403" x2="848.245" y2="27.753"/>
<line fill="none" stroke="#000000" x1="701.315" y1="708.709" x2="812.767" y2="21.285"/>
<line fill="none" stroke="#000000" x1="701.689" y1="709.003" x2="777.007" y2="16.687"/>
<g>
	<g>
		<defs>
			<rect id="SVGID_27_" x="11.28" y="13.134" width="1394.761" height="1391.053"/>
		</defs>
		<clipPath id="SVGID_28_">
			<use xlink:href="#SVGID_27_"  overflow="visible"/>
		</clipPath>
		<line clip-path="url(#SVGID_28_)" fill="none" stroke="#000000" x1="702.085" y1="709.277" x2="741.07" y2="13.969"/>
	</g>
	<g>
		<defs>
			<rect id="SVGID_29_" x="11.28" y="13.134" width="1394.761" height="1391.053"/>
		</defs>
		<clipPath id="SVGID_30_">
			<use xlink:href="#SVGID_29_"  overflow="visible"/>
		</clipPath>
		<line clip-path="url(#SVGID_30_)" fill="none" stroke="#000000" x1="702.509" y1="709.533" x2="705.049" y2="13.137"/>
	</g>
	<g>
		<defs>
			<rect id="SVGID_31_" x="11.28" y="13.134" width="1394.761" height="1391.053"/>
		</defs>
		<clipPath id="SVGID_32_">
			<use xlink:href="#SVGID_31_"  overflow="visible"/>
		</clipPath>
		<line clip-path="url(#SVGID_32_)" fill="none" stroke="#000000" x1="702.956" y1="709.766" x2="669.046" y2="14.189"/>
	</g>
</g>
<line fill="none" stroke="#000000" x1="703.424" y1="709.97" x2="633.156" y2="17.121"/>
<line fill="none" stroke="#000000" x1="703.911" y1="710.142" x2="597.481" y2="21.925"/>
<line fill="none" stroke="#000000" x1="704.412" y1="710.284" x2="562.107" y2="28.578"/>
<line fill="none" stroke="#000000" x1="704.927" y1="710.388" x2="527.141" y2="37.062"/>
<line fill="none" stroke="#000000" x1="705.45" y1="710.451" x2="492.669" y2="47.353"/>
<line fill="none" stroke="#000000" x1="705.979" y1="710.473" x2="458.783" y2="59.421"/>
<line fill="none" stroke="#000000" x1="706.504" y1="710.449" x2="425.577" y2="73.226"/>
<line fill="none" stroke="#000000" x1="707.024" y1="710.381" x2="393.133" y2="88.735"/>
<line fill="none" stroke="#000000" x1="707.533" y1="710.266" x2="361.538" y2="105.896"/>
</svg>
